<svg xmlns="http://www.w3.org/2000/svg" width="900" height="268" viewBox="0 0 900 268">
  <rect width="900" height="268" fill="#ffffff" rx="6" ry="6" />
  <!-- title -->
  <text x="450" y="20" text-anchor="middle"
        font-family="-apple-system, BlinkMacSystemFont, &quot;Segoe UI&quot;, Helvetica, Arial, sans-serif" font-size="14" font-weight="600" fill="#24292e"
        >Car Listings — Record Growth</text>
  <!-- legend -->
  <circle cx="365" cy="31" r="4" fill="#3b82f6" />
  <text x="373" y="34" font-family="-apple-system, BlinkMacSystemFont, &quot;Segoe UI&quot;, Helvetica, Arial, sans-serif" font-size="11" fill="#586069">Total Records</text>
  <circle cx="455" cy="31" r="4" fill="#22c55e" />
  <text x="463" y="34" font-family="-apple-system, BlinkMacSystemFont, &quot;Segoe UI&quot;, Helvetica, Arial, sans-serif" font-size="11" fill="#586069">Added</text>
  <!-- grid lines -->
  <line x1="58" y1="52" x2="848" y2="52"
           stroke="#e1e4e8" stroke-width="1" stroke-dasharray="4,3" />
  <line x1="58" y1="145" x2="848" y2="145"
           stroke="#e1e4e8" stroke-width="1" stroke-dasharray="4,3" />
  <line x1="58" y1="236" x2="848" y2="236"
           stroke="#e1e4e8" stroke-width="1" stroke-dasharray="4,3" />
  <!-- bars (Added, right axis) -->
  <rect x="59" y="122" width="28" height="118"
          rx="1" fill="#22c55eb3" />
  <rect x="89" y="140" width="28" height="100"
          rx="1" fill="#22c55eb3" />
  <rect x="119" y="133" width="28" height="107"
          rx="1" fill="#22c55eb3" />
  <rect x="149" y="172" width="28" height="68"
          rx="1" fill="#22c55eb3" />
  <rect x="179" y="175" width="28" height="65"
          rx="1" fill="#22c55eb3" />
  <rect x="209" y="73" width="28" height="167"
          rx="1" fill="#22c55eb3" />
  <rect x="239" y="129" width="28" height="111"
          rx="1" fill="#22c55eb3" />
  <rect x="269" y="154" width="28" height="86"
          rx="1" fill="#22c55eb3" />
  <rect x="299" y="111" width="28" height="129"
          rx="1" fill="#22c55eb3" />
  <rect x="329" y="142" width="28" height="98"
          rx="1" fill="#22c55eb3" />
  <rect x="359" y="133" width="28" height="107"
          rx="1" fill="#22c55eb3" />
  <rect x="389" y="142" width="28" height="98"
          rx="1" fill="#22c55eb3" />
  <rect x="419" y="139" width="28" height="101"
          rx="1" fill="#22c55eb3" />
  <rect x="449" y="130" width="28" height="110"
          rx="1" fill="#22c55eb3" />
  <rect x="479" y="151" width="28" height="89"
          rx="1" fill="#22c55eb3" />
  <rect x="509" y="172" width="28" height="68"
          rx="1" fill="#22c55eb3" />
  <rect x="539" y="179" width="28" height="61"
          rx="1" fill="#22c55eb3" />
  <rect x="569" y="138" width="28" height="102"
          rx="1" fill="#22c55eb3" />
  <rect x="599" y="140" width="28" height="100"
          rx="1" fill="#22c55eb3" />
  <rect x="629" y="163" width="28" height="77"
          rx="1" fill="#22c55eb3" />
  <rect x="659" y="136" width="28" height="104"
          rx="1" fill="#22c55eb3" />
  <rect x="689" y="151" width="28" height="89"
          rx="1" fill="#22c55eb3" />
  <rect x="719" y="124" width="28" height="116"
          rx="1" fill="#22c55eb3" />
  <rect x="749" y="149" width="28" height="91"
          rx="1" fill="#22c55eb3" />
  <rect x="779" y="135" width="28" height="105"
          rx="1" fill="#22c55eb3" />
  <rect x="809" y="179" width="28" height="61"
          rx="1" fill="#22c55eb3" />
  <!-- line (Total, left axis) -->
  <polyline points="73,240 103,232 133,224 163,218 193,213 223,200 253,191 283,184 313,174 343,167 373,158 403,150 433,142 463,134 493,127 523,121 553,117 583,108 613,101 643,95 673,86 703,79 733,70 763,63 793,55 823,50" fill="none" stroke="#3b82f6" stroke-width="2" stroke-linejoin="round" stroke-linecap="round" />
  <!-- left y-axis labels (Total) -->
  <text x="52" y="56" text-anchor="end"
           font-family="-apple-system, BlinkMacSystemFont, &quot;Segoe UI&quot;, Helvetica, Arial, sans-serif" font-size="10" fill="#586069"
           >7M</text>
  <text x="52" y="149" text-anchor="end"
           font-family="-apple-system, BlinkMacSystemFont, &quot;Segoe UI&quot;, Helvetica, Arial, sans-serif" font-size="10" fill="#586069"
           >5M</text>
  <text x="52" y="240" text-anchor="end"
           font-family="-apple-system, BlinkMacSystemFont, &quot;Segoe UI&quot;, Helvetica, Arial, sans-serif" font-size="10" fill="#586069"
           >3M</text>
  <!-- right y-axis labels (Added) -->
  <text x="854" y="56" text-anchor="start"
           font-family="-apple-system, BlinkMacSystemFont, &quot;Segoe UI&quot;, Helvetica, Arial, sans-serif" font-size="10" fill="#22c55e"
           >265k</text>
  <text x="854" y="149" text-anchor="start"
           font-family="-apple-system, BlinkMacSystemFont, &quot;Segoe UI&quot;, Helvetica, Arial, sans-serif" font-size="10" fill="#22c55e"
           >132k</text>
  <text x="854" y="240" text-anchor="start"
           font-family="-apple-system, BlinkMacSystemFont, &quot;Segoe UI&quot;, Helvetica, Arial, sans-serif" font-size="10" fill="#22c55e"
           >0</text>
  <!-- axes -->
  <line x1="58" y1="50" x2="58" y2="240"
        stroke="#e1e4e8" stroke-width="1" />
  <line x1="58" y1="240" x2="848" y2="240"
        stroke="#e1e4e8" stroke-width="1" />
  <line x1="848" y1="50" x2="848" y2="240"
           stroke="#e1e4e8" stroke-width="1" />
  <!-- x-axis labels -->
  <text x="73" y="256" text-anchor="middle"
           font-family="-apple-system, BlinkMacSystemFont, &quot;Segoe UI&quot;, Helvetica, Arial, sans-serif" font-size="10" fill="#586069"
           >Mar 1</text>
  <text x="313" y="256" text-anchor="middle"
           font-family="-apple-system, BlinkMacSystemFont, &quot;Segoe UI&quot;, Helvetica, Arial, sans-serif" font-size="10" fill="#586069"
           >Apr 26</text>
  <text x="553" y="256" text-anchor="middle"
           font-family="-apple-system, BlinkMacSystemFont, &quot;Segoe UI&quot;, Helvetica, Arial, sans-serif" font-size="10" fill="#586069"
           >Jun 21</text>
  <text x="793" y="256" text-anchor="middle"
           font-family="-apple-system, BlinkMacSystemFont, &quot;Segoe UI&quot;, Helvetica, Arial, sans-serif" font-size="10" fill="#586069"
           >Aug 16</text>
  <text x="823" y="256" text-anchor="middle"
           font-family="-apple-system, BlinkMacSystemFont, &quot;Segoe UI&quot;, Helvetica, Arial, sans-serif" font-size="10" fill="#586069"
           >Aug 23</text>
</svg>